<svg width="22" height="18" viewBox="0 0 22 18" fill="none" xmlns="http://www.w3.org/2000/svg">
<path d="M21.6945 2.86517C20.9204 3.20473 20.0956 3.4298 19.2357 3.53909C20.1203 3.01088 20.7956 2.18085 21.113 1.18039C20.2882 1.67216 19.3775 2.01953 18.4069 2.21338C17.6237 1.37944 16.5075 0.862946 15.2898 0.862946C12.9272 0.862946 11.0251 2.78061 11.0251 5.1315C11.0251 5.46976 11.0537 5.79501 11.124 6.10464C7.57617 5.93161 4.43688 4.23121 2.32797 1.64094C1.95979 2.27973 1.74382 3.01088 1.74382 3.79798C1.74382 5.27591 2.5049 6.58601 3.63937 7.34449C2.95374 7.33148 2.28113 7.13243 1.7113 6.81889C1.7113 6.8319 1.7113 6.84881 1.7113 6.86572C1.7113 8.93951 3.19053 10.662 5.1303 11.0588C4.78294 11.1538 4.40435 11.1993 4.01145 11.1993C3.73824 11.1993 3.46243 11.1837 3.20354 11.1265C3.75646 12.8165 5.32545 14.0589 7.19108 14.0992C5.73917 15.235 3.89566 15.9193 1.89994 15.9193C1.54997 15.9193 1.21432 15.9037 0.878662 15.8608C2.769 17.0798 5.00931 17.7758 7.42526 17.7758C15.278 17.7758 19.5713 11.2709 19.5713 5.63238C19.5713 5.44374 19.5648 5.2616 19.5557 5.08076C20.4027 4.4797 21.1143 3.72903 21.6945 2.86517Z" fill="#FEFEFE"/>
</svg>
